<?xml version="1.0"?>
<svg xmlns="http://www.w3.org/2000/svg" version="1.1" viewBox="0 0 2000 2000" width="1200" height="1200"><path transform="translate(0)" d="m0 0h2e3v2e3h-2e3z" fill="#FFFFFF"/><path transform="translate(992,420)" d="m0 0h26l20 2 23 5 19 7 25 12 14 8 11 7 13 11 18 18 9 11 11 15 11 19 8 15 7 21 3 17 2 23v34l-3 24-4 15-7 19-12 21-9 14-8 11-12 14-14 14-11 9-9 7-10 9-6 7-2 6-1 14v16l4-1 2-4 14-12 10-9 16-10 16-9 16-8 29-11 19-7 22-6 15-2 32-6 19-3 14-1h25l3 5 1 59v333l-2 13-6 12-5 4-11 4-5 1-71 1-23 2-25 3-24 6-21 6-22 6-16 6-16 8-12 7-10 5-15 12-9 6-7 6-1 2 10-6 15-6 20-2 30-1h237l9-3 7-6 4-11 1-18 1-426 3-8 9-8 12-2 10 3 5 3v2h2l5 10v449l-2 14-5 13-7 11-12 12-14 7-15 4-11 1h-125l-157 1-13 4-10 5-3 3-1 41-2 17-7 14-9 11-11 9-15 6-5 1h-18l-14-4-12-7-9-9-6-10-4-11-2-18v-38l-4-5-12-6-6-2-7-1-94-1h-183l-17-2-17-5-10-6-11-10-7-11-5-13-2-12v-452l2-7 4-5 10-5 10-1 10 4 7 8 4 11v45l-1 36v311l1 47 3 10 4 6 6 4h262l21 1 10 2 6 3 15 10 3 1-2-6-11-9-6-4-4-5-16-8-13-7-17-9-24-9-24-7-28-6-37-6-16-1-75-1-9-2-6-4-6-8-3-12-1-241-1-72v-49l1-37 2-5 4-1h17l25 2 23 3 25 5 18 3 23 8 45 17 29 15 10 8 16 12 16 13 6 4-2-27-3-10-9-10-7-6-14-10-29-29-13-17-11-17-11-20-7-19-5-22-2-15v-32l4-26 7-26 6-15 10-19 12-19 13-17 5-6h2v-2h2v-2l8-7 8-9 13-8 19-11 16-8 20-8 18-5 18-3z" fill="#5C90BD"/><path transform="translate(703,806)" d="m0 0 12 1 28 5 30 8 20 8 18 8 20 11 15 9 23 15 13 10 13 11 17 17 7 8 11 11 11 9 4 4v264l-4-1-11-11-12-9-12-6-10-6-32-14-27-8-21-4-30-4-27-2-55-1-2-1-1-44v-168l1-119z" fill="#FFFFFF"/><path transform="translate(1304,806)" d="m0 0h8l1 1v330l-1 1-19 1-37 1-28 2-34 5-22 5-19 5-18 7-15 8-11 6-11 7-10 7-8 7-6 6-3-1v-259l9-11 8-10 9-10 5-5 15-16 8-8 5-6 15-10 19-12 22-12 34-17 25-9 25-7 26-5z" fill="#FFFFFF"/><path transform="translate(1e3 467)" d="m0 0h12l20 2 21 6 17 7 18 10 14 10 10 9 8 7 9 12 13 17 8 15 7 20 4 17 2 15v21l-3 21-5 19-7 16-8 14-5 7h-2l-2 4-8 11-4 5-10 7-2 1h-59l-1-3 7-23 4-5 6-4 10-10 9-13 6-12 4-13 2-10v-14l-3-16-4-12-7-14-8-10-5-6-13-10-17-9-15-4-7-1h-15l-18 3-15 6-11 7-16 15-9 12-7 14-5 19v25l4 16 8 16 8 11 10 11 6 4 3 5 5 19v6h-58l-12-9-7-8-10-9-7-11-12-23-5-14-3-15-1-9v-34l4-23 6-18 12-25 12-17 15-16 12-10 11-7 15-8 19-8 16-5 14-3z" fill="#FFFFFF"/><path transform="translate(991,979)" d="m0 0h34l1 9v244l-3 7-9 14-5 9h-4l-6-15-6-9-3-6v-144z" fill="#FFFFFF"/><path transform="translate(1049,1539)" d="m0 0h43l14 2 12 5 7 7 5 12 1 6v10l-2 10-5 10-5 5-14 7 5 9 15 24 12 19v3h-18l-7-10-15-24-11-17-2-1h-20l-1 51-2 1h-13l-2-1v-127z" fill="#5C90BD"/><path transform="translate(1265,1539)" d="m0 0h22l4 10 15 45 14 41 10 29 1 3-3 1h-14l-3-5-9-27-2-1h-50l-4 10-7 21-2 2h-14l-2-1 3-10 12-34 12-36 13-37 3-10z" fill="#5C90BD"/><path transform="translate(956,1552)" d="m0 0h19l12 6 6 7 4 9 3 18v23l-3 17-7 14-8 6-7 3-12 1-10-2-8-4-7-8-5-13-2-12v-28l3-15 6-12 8-7z" fill="#FFFFFF"/><path transform="translate(952,1537)" d="m0 0h26l12 4 10 6 7 8 6 13 3 11 2 18v15l-3 21-5 13-6 9-9 8-11 5-8 2h-21l-12-3-12-7-7-8-5-10-3-9-3-19v-21l2-15 5-16 6-10 7-7 12-6zm4 15-9 4-7 6-6 12-3 15v28l3 15 4 10 7 8 8 4 10 2 12-1 12-6 6-8 4-9 3-17v-23l-3-18-6-12-7-6-9-4z" fill="#5C90BD"/><path transform="translate(995,599)" d="m0 0h26l3 1 4 4v2l7 2 7 10 3 7 1 4v18l-3 10-6 10-9 6-8 4-5 1-1 9-1 52-2 2-7-1-1-1-1-57-1-4-10-3-11-7-9-13-4-13v-7l3-10 6-10 5-7 6-3 5-5z" fill="#FFFFFF"/><path transform="translate(1386,1536)" d="m0 0h9l12 2 12 5 10 9 5 5-1 4-9 7-4-1-5-6-9-6-6-2-10-1-12 2-8 5-5 8v10l4 6 6 4 27 8 15 5 10 6 7 8 4 11v16l-4 11-8 9-8 5-14 4h-23l-15-4-10-6-9-9-3-6 12-8h3l4 6 1 3 14 7 9 2h9l10-2 8-5 5-6 1-3v-10l-3-6-6-5-12-5-25-7-10-4-11-8-5-9-1-4v-15l3-10 6-9 9-6 12-4z" fill="#5C90BD"/><path transform="translate(680,1539)" d="m0 0h13l1 1 1 85 2 12 5 10 6 5 5 2 6 1h12l9-2 8-5 4-6 3-10 1-13 1-79 1-1h15l1 1v67l-1 23-2 12-5 12-6 7-10 6-10 3-16 1-17-2-12-5-9-8-5-10-3-13-1-11v-82z" fill="#5C90BD"/><path transform="translate(803,1539)" d="m0 0h94v15l-1 1-41 1v57l-1 54-1 1h-14l-1-1-1-111-36-1h-5l-1-1v-14z" fill="#5C90BD"/><path transform="translate(573,1539)" d="m0 0h82l1 1v14l-1 1h-34l-7 1-1 111-1 1h-14l-1-1-1-111-42-2v-14z" fill="#5C90BD"/><path transform="translate(1154,1539)" d="m0 0h52v14l-1 1-16 1v97l17 1v14l-4 1h-47l-2-1v-8l1-6 16-1 1-1v-97h-16l-2-1v-13z" fill="#5C90BD"/><path transform="translate(1252,461)" d="m0 0h28l6 3 2 7-1 14-5 13-7 10-7 6-8 4-16 3-10-1-8-4-5-6-1-3v-13l4-12 6-10 10-7z" fill="#5C90BD"/><path transform="translate(735,461)" d="m0 0h28l13 5 8 6 5 10 3 12v11l-3 8-5 4-7 3h-13l-9-2-8-4-8-7-7-11-5-12-2-8v-7l4-5z" fill="#5C90BD"/><path transform="translate(1007,294)" d="m0 0 6 2 9 9 9 14 5 13v14l-4 10-8 8-10 5-3 1h-8l-9-4-7-6-5-9-1-4v-17l5-13 10-14 7-7z" fill="#5C90BD"/><path transform="translate(1287,614)" d="m0 0 11 1 13 5 12 9 5 6 2 6-4 6-9 9-14 8-8 3h-15l-10-3-8-6-5-8-2-5v-9l3-8 9-8 9-4z" fill="#5C90BD"/><path transform="translate(720,615)" d="m0 0h13l12 3 10 9 4 7 1 4v7l-3 8-5 6-8 5-9 3h-19l-11-6-10-9-7-8-2-6 5-8 15-10 9-4z" fill="#5C90BD"/><path transform="translate(1157,348)" d="m0 0h12l3 3 4 13v17l-2 9-5 9-5 5-8 5-5 2h-15l-7-4-6-9-2-6v-15l5-10 7-8 10-6z" fill="#5C90BD"/><path transform="translate(847,348)" d="m0 0h12l11 4 13 9 8 11 3 6 1 11-4 10-7 8-8 4h-12l-8-3-8-6-6-9-3-8v-19l2-11 4-6z" fill="#5C90BD"/><path transform="translate(1065,1554)" d="m0 0h26l11 2 6 4 4 6 1 3v15l-3 8-6 5-5 2-6 1h-29l-1-1v-44z" fill="#FFFFFF"/><path transform="translate(978,847)" d="m0 0h68l6 5 1 2v8l-3 6-3 2-6 1h-74l-4-2-2-5v-10l3-5 1-1z" fill="#FFFFFF"/><path transform="translate(951,783)" d="m0 0h114l1 4-5 5-3 4-3 6-1 1h-93l-4-9-7-8z" fill="#FFFFFF"/><path transform="translate(1274,1558)" d="m0 0 4 4 12 36 6 16v5h-41l1-7 15-44z" fill="#FFFFFF"/><path transform="translate(1018,1330)" d="m0 0 6 1 1 2v9l-2 6-4 8-5 5-3 2h-6l-6-4-6-10-2-6v-10l2-2z" fill="#FFFFFF"/><path transform="translate(980,916)" d="m0 0h55l-1 4-8 8-13 4h-14l-10-5-9-9z" fill="#FFFFFF"/><path transform="translate(951,1653)" d="m0 0 12 2h12l-3 2-11 2h-4v-2h-5z" fill="#5C90BD"/><path transform="translate(1379,1654)" d="m0 0 17 2-4 2-7 1-1-1-8-1v-2z" fill="#5C90BD"/> </svg>
